<svg height="792.25033" viewBox="0 0 1161.52204 792.25033" width="1161.52204" xmlns="http://www.w3.org/2000/svg"><path d="m584.62145 93.57415h-1.34574v-2.355h1.0093a.6729.6729 0 0 0 .67287-.67287v-12.1117a.67288.67288 0 0 0 -.67287-.67287h-1.0093v-6.87839a14.65339 14.65339 0 0 0 -14.65348-14.65344h-1.49539v-1.68217a.67287.67287 0 0 0 -.67287-.67287h-12.11166a.67287.67287 0 0 0 -.67287.67287v1.68217h-218.83232a14.65339 14.65339 0 0 0 -14.65348 14.65344v311.838a14.65343 14.65343 0 0 0 14.65348 14.65348h233.78511a14.65343 14.65343 0 0 0 14.65348-14.65348v-275.68978h1.34574a.6729.6729 0 0 0 .67287-.67287v-12.11167a.67288.67288 0 0 0 -.67287-.67285z" fill="#3f3d56" transform="translate(-19.23898 -53.87484)"/><path d="m313.05499 11.94h240.89001v319.62h-240.89001z" fill="#f2f2f2"/><path d="m0 668h1161.52204v2h-1161.52204z" fill="#3f3d56"/><path d="m290.49114 622.12231c2.2427 76.79367-42.62747 104.93685-98.93825 106.58136q-1.962.0573-3.90636.07024-3.91709.02986-7.75808-.13046c-50.92746-2.1142-91.23951-29.14763-93.32521-100.56557-2.15845-73.90872 89.5781-169.93874 96.46088-177.04212.00619-.00018.00619-.00018.01227-.00663.26146-.27069.39536-.40611.39536-.40611s104.81686 94.71185 107.05939 171.49929z" fill="#4154f1" transform="translate(-19.23898 -53.87484)"/><path d="m187.49873 717.0655 35.77056-53.19441-35.6974 58.91711.07464 5.98571q-3.91709.02986-7.75808-.13046l1.77414-76.94233-.0486-.59358.06546-.11469.16981-7.27058-39.173-56.87462 39.12677 51.433.13885 1.53678 1.34-58.13294-33.83488-58.96594 33.93127 48.75366-.35417-120.43645.00076-.40086.01151.39423 2.246 94.92013 30.83647-38.55661-30.73552 46.73377.673 51.99856 28.37589-50.74862-28.27161 58.3933.37465 28.91381 41.26621-70.69222-41.14076 80.779z" fill="#3f3d56" transform="translate(-19.23898 -53.87484)"/><path d="m886.239 160.20719h-1.48962v-40.80759a23.61832 23.61832 0 0 0 -23.61838-23.61836h-86.4564a23.61833 23.61833 0 0 0 -23.61841 23.61836v223.87366a23.61833 23.61833 0 0 0 23.61841 23.61836h86.4564a23.61832 23.61832 0 0 0 23.6184-23.61836v-154.01852h1.4896z" fill="#3f3d56" transform="translate(-19.23898 -53.87484)"/><path d="m879.71974 120.78771v223.54719a17.63854 17.63854 0 0 1 -17.63537 17.64153h-86.87372a17.63848 17.63848 0 0 1 -17.6353-17.64153v-223.54719a17.63714 17.63714 0 0 1 17.6353-17.63526h10.5398a8.37878 8.37878 0 0 0 7.75928 11.54184h49.53035a8.37869 8.37869 0 0 0 7.75924-11.54184h11.28505a17.6372 17.6372 0 0 1 17.63537 17.63526z" fill="#f2f2f2" transform="translate(-19.23898 -53.87484)"/><g fill="#ccc"><path d="m774.34773 79h73.39636v2.72727h-73.39636z"/><path d="m774.34773 87.63636h73.39636v2.72727h-73.39636z"/><path d="m774.34773 96.27273h73.39636v2.72727h-73.39636z"/><path d="m751.07313 80.6855h16.62899v16.62899h-16.62899z"/><path d="m774.34773 273h73.39636v2.72727h-73.39636z"/><path d="m774.34773 281.63636h73.39636v2.72727h-73.39636z"/><path d="m774.34773 290.27273h73.39636v2.72727h-73.39636z"/><path d="m751.07313 274.6855h16.62899v16.62899h-16.62899z"/></g><path d="m859.14669 434.44284h-208.72132v-4.30193h-94.64237v4.30193h-209.58169a14.11841 14.11841 0 0 0 -14.11843 14.11842v285.80366a14.11846 14.11846 0 0 0 14.11843 14.11848h512.94538a14.11846 14.11846 0 0 0 14.11843-14.11848v-285.80366a14.11841 14.11841 0 0 0 -14.11843-14.11842z" fill="#3f3d56" transform="translate(-19.23898 -53.87484)"/><path d="m331.77238 405.51917h503.32529v283.92709h-503.32529z" fill="#f2f2f2"/><circle cx="583.00483" cy="392.61339" fill="#4154f1" r="5.16231"/><path d="m887.3974 738.15876h-49.12128v-3.53915a.70171.70171 0 0 0 -.70173-.70174h-16.84158a.70171.70171 0 0 0 -.70173.70174v3.53915h-10.526v-3.53915a.70171.70171 0 0 0 -.70173-.70174h-16.84158a.70171.70171 0 0 0 -.70173.70174v3.53915h-10.526v-3.53915a.70171.70171 0 0 0 -.70173-.70174h-16.84157a.70171.70171 0 0 0 -.70173.70174v3.53915h-10.52601v-3.53915a.70171.70171 0 0 0 -.70173-.70174h-16.84156a.70171.70171 0 0 0 -.70174.70174v3.53915h-10.52597v-3.53915a.70171.70171 0 0 0 -.70174-.70174h-16.84159a.70171.70171 0 0 0 -.70173.70174v3.53915h-10.526v-3.53915a.70171.70171 0 0 0 -.70173-.70174h-16.84157a.70171.70171 0 0 0 -.70173.70174v3.53915h-10.526v-3.53915a.70171.70171 0 0 0 -.70173-.70174h-131.92571a.70171.70171 0 0 0 -.70173.70174v3.53915h-10.526v-3.53915a.70171.70171 0 0 0 -.70173-.70174h-16.84157a.70171.70171 0 0 0 -.70174.70174v3.53915h-10.526v-3.53915a.70172.70172 0 0 0 -.70174-.70174h-16.84156a.70171.70171 0 0 0 -.70173.70174v3.53915h-10.526v-3.53915a.70171.70171 0 0 0 -.70173-.70174h-16.84157a.70171.70171 0 0 0 -.70173.70174v3.53915h-10.526v-3.53915a.70171.70171 0 0 0 -.70174-.70174h-16.84157a.70171.70171 0 0 0 -.70173.70174v3.53915h-10.526v-3.53915a.70171.70171 0 0 0 -.70173-.70174h-16.84157a.70171.70171 0 0 0 -.70173.70174v3.53915h-10.526v-3.53915a.70171.70171 0 0 0 -.70173-.70174h-16.84157a.70171.70171 0 0 0 -.70174.70174v3.53915h-32.27969a16.84159 16.84159 0 0 0 -16.84158 16.84158v7.61537a16.84158 16.84158 0 0 0 16.84158 16.84154h559.98256a16.84158 16.84158 0 0 0 16.8416-16.84154v-7.61537a16.84159 16.84159 0 0 0 -16.8416-16.84158z" fill="#3f3d56" transform="translate(-19.23898 -53.87484)"/><path d="m534.78847 427.7565h141.24028v5.24823h-141.24028z" fill="#e6e6e6"/><path d="m534.78847 444.37589h141.24028v5.24823h-141.24028z" fill="#e6e6e6"/><path d="m534.78847 460.99527h141.24028v5.24823h-141.24028z" fill="#e6e6e6"/><path d="m534.78847 427.7565h141.24028v5.24823h-141.24028z" fill="#ccc"/><path d="m534.78847 444.37589h141.24028v5.24823h-141.24028z" fill="#ccc"/><path d="m534.78847 460.99527h141.24028v5.24823h-141.24028z" fill="#ccc"/><path d="m490 431h32v32h-32z" fill="#ccc"/><path d="m534.78847 614.7565h141.24028v5.24823h-141.24028z" fill="#ccc"/><path d="m534.78847 631.37589h141.24028v5.24823h-141.24028z" fill="#ccc"/><path d="m534.78847 647.99527h141.24028v5.24823h-141.24028z" fill="#ccc"/><path d="m490 618h32v32h-32z" fill="#ccc"/><path d="m943.51144 362.9222a53.19709 53.19709 0 0 0 -31.60589-16.67841l5.1983-4.6958-5.75067-.2904-7.11457 6.4306 6.43061 7.11462 5.75067.29041-4.30878-4.76428a49.359 49.359 0 0 1 -7.87213 98.08691v4a53.36418 53.36418 0 0 0 39.27246-89.49365z" fill="#3f3d56" transform="translate(-19.23898 -53.87484)"/><path d="m252.96652 362.9222a53.19709 53.19709 0 0 1 31.6059-16.67841l-5.19831-4.6958 5.75067-.2904 7.11457 6.4306-6.43061 7.11462-5.75067.29041 4.30878-4.76428a49.359 49.359 0 0 0 7.87213 98.08691v4a53.36418 53.36418 0 0 1 -39.27246-89.49365z" fill="#3f3d56" transform="translate(-19.23898 -53.87484)"/><path d="m385.27409 27.7565h141.24028v5.24823h-141.24028z" fill="#ccc"/><path d="m385.27409 44.37589h141.24028v5.24823h-141.24028z" fill="#ccc"/><path d="m385.27409 60.99527h141.24028v5.24823h-141.24028z" fill="#ccc"/><path d="m340.48563 31h32v32h-32z" fill="#ccc"/><path d="m384.78847 276.7565h141.24028v5.24823h-141.24028z" fill="#ccc"/><path d="m384.78847 293.37589h141.24028v5.24823h-141.24028z" fill="#ccc"/><path d="m384.78847 309.99527h141.24028v5.24823h-141.24028z" fill="#ccc"/><path d="m340 280h32v32h-32z" fill="#ccc"/><path d="m985.771 381.79661 31.894-46.30584s27.77274-22.26912 19.81265-26.60525-28.80015 15.99258-28.80015 15.99258-60.12445 46.09338-50.20994 52.52635 27.30344 4.39216 27.30344 4.39216z" fill="#ffb8b8" transform="translate(-19.23898 -53.87484)"/><path d="m990.40617 320.98636h41.30367a144.46152 144.46152 0 0 0 0-49.24667h-41.30367a88.61132 88.61132 0 0 1 0 49.24667z" fill="#4154f1" transform="translate(-19.23898 -53.87484)"/><path d="m1097.79125 323.33578c-12.41227-20.9729-36.969-21.95033-36.969-21.95033s-23.92909-3.06-39.27945 28.882c-14.30776 29.77255-34.05429 58.51855-3.179 65.48809l5.577-17.358 3.45379 18.65031a120.80742 120.80742 0 0 0 13.21037.22578c33.06492-1.06753 64.55425.31233 63.54034-11.55275-1.34784-15.77303 5.58904-42.20499-6.35405-62.3851z" fill="#2f2e41" transform="translate(-19.23898 -53.87484)"/><path d="m1031.79575 452.61588-15.90018 36.57041 55.65063 8.7451s26.23529-35.7754 28.62032-38.16043z" fill="#ffb8b8" transform="translate(-19.23898 -53.87484)"/><circle cx="1038.79207" cy="289.82482" fill="#ffb8b8" r="29.41533"/><path d="m1050.876 365.1649s13.51515 30.21034 11.92513 33.39037 28.62032-16.69518 28.62032-16.69518-12.72014-21.46524-11.92513-24.64528z" fill="#ffb8b8" transform="translate(-19.23898 -53.87484)"/><path d="m1095.39647 377.885s23.85026-13.51515 37.36542 23.85027c0 0 44.5205 52.47059 36.57041 62.0107s-38.16043-23.05526-38.16043-23.05526l-19.08022-19.87523s-27.0303-7.15508-24.64527-22.26025 7.95009-20.67023 7.95009-20.67023z" fill="#ffb8b8" transform="translate(-19.23898 -53.87484)"/><path d="m1039.74584 396.17025-55.65063-15.90018s-29.41533-11.92513-28.62032-4.77 54.06061 47.70053 71.55081 45.3155 12.72014-24.64532 12.72014-24.64532z" fill="#ffb8b8" transform="translate(-19.23898 -53.87484)"/><path d="m1071.5462 390.60519s-18.28521-2.385-22.26025 1.59-11.52763.39751-11.52763.39751l-12.72015 23.0553s-9.1426 13.11764-1.98752 25.83779-3.18 29.41533-3.18 29.41533 57.24064 0 69.16577 6.36007 26.29777-53.068 26.29777-53.068-14.77014-18.08528-10.79509-29.21541 1.59-19.87522 1.59-19.87522l-17.4902 1.59z" fill="#d0cde1" transform="translate(-19.23898 -53.87484)"/><path d="m983.936 688.124 6.361 61.216 24.645-12.72-7.95-53.266z" fill="#ffb8b8"/><path d="m1076.952 687.329 20.696 55.341 19.875-14.31-24.67-53.751z" fill="#ffb8b8"/><path d="m1034.18078 769.82445a49.64912 49.64912 0 0 1 -5.56506 12.72014c-3.97505 6.36007-13.51516 3.18-13.51516 3.18s-11.13012-8.7451-13.51515-4.77006-15.10517 23.85027-15.10517 23.85027-42.13547 34.98039-6.36007 40.54546 42.93048-20.67024 42.93048-20.67024 27.03031-9.5401 27.82532-19.08021-16.69519-35.77536-16.69519-35.77536z" fill="#2f2e41" transform="translate(-19.23898 -53.87484)"/><path d="m1117.65672 781.41446s-12.72015-3.975-11.92514 2.385 5.56506 31.80036 5.56506 31.80036-8.74509 35.7754 15.90018 29.41533 25.44029-40.54546 25.44029-40.54546 12.72014-45.31551 3.18-46.11051-32.59536-3.18-32.59536-3.18 14.31019 23.05525-5.56503 26.23528z" fill="#2f2e41" transform="translate(-19.23898 -53.87484)"/><path d="m1073.065 267.439-24.261-12.708-33.503 5.199-6.932 30.615 17.255-.664 4.82-11.247v11.062l7.962-.307 4.621-17.906 2.889 19.062 28.304-.578z" fill="#2f2e41"/><path d="m1080.2913 495.54636-66.78075-15.10517s-33.39038 57.24065-38.16043 104.94118-26.2353 162.18183 7.95009 163.77184 54.0606 1.59 55.65062-1.59-16.69519-128.79145-16.69519-128.79145 38.95544 154.23173 60.42068 143.89662 45.31551-23.85027 44.5205-31.80036-52.47059-92.221-52.47059-92.221l7.15508-73.14082s8.7451-29.41533-6.36007-56.44563z" fill="#2f2e41" transform="translate(-19.23898 -53.87484)"/><path d="m1032.162 475.67161h41.30366a144.46158 144.46158 0 0 0 0-49.24668h-41.30366a88.61154 88.61154 0 0 1 0 49.24668z" fill="#4154f1" transform="translate(-19.23898 -53.87484)"/><path d="m1152.63711 439.89574-69.96079-1.59s-31.00535-23.85027-31.80035-9.54011 32.59536 22.26025 32.59536 22.26025 71.78242 25.75844 82.79674 14.46924z" fill="#ffb8b8" transform="translate(-19.23898 -53.87484)"/><circle cx="375.86364" cy="174.0315" fill="#4154f1" r="23.86364"/><circle cx="439.5" cy="174.0315" fill="#4154f1" r="19.5"/><circle cx="503.13636" cy="174.0315" fill="#4154f1" r="11.86364"/><circle cx="768.97799" cy="177.02031" fill="#4154f1" r="12.53648"/><circle cx="802.40861" cy="177.02031" fill="#4154f1" r="9.96711"/><circle cx="835.83923" cy="177.02031" fill="#4154f1" r="6.53648"/><circle cx="583" cy="538.0315" fill="#4154f1" r="56"/><path d="m603.834 550.347-20.888-42.188-20.78 42.242 11.742-.015v17.518h18.175v-17.542z" fill="#d0cde1"/></svg>